{
    "asset" : {
        "generator" : "Khronos glTF Blender I/O v1.5.17",
        "version" : "2.0"
    },
    "scene" : 0,
    "scenes" : [
        {
            "name" : "Scene",
            "nodes" : [
                0,
                1,
                2,
                3,
                4
            ]
        }
    ],
    "nodes" : [
        {
            "mesh" : 0,
            "name" : "Cabinet_hl"
        },
        {
            "mesh" : 1,
            "name" : "Paybox_base",
            "translation" : [
                -0.7934637069702148,
                1.488272786140442,
                -4.400766849517822
            ]
        },
        {
            "mesh" : 2,
            "name" : "Controls",
            "rotation" : [
                0.0993121936917305,
                0,
                0,
                0.9950563311576843
            ],
            "translation" : [
                -0.7332955598831177,
                2.6630184650421143,
                0.5140324831008911
            ]
        },
        {
            "mesh" : 3,
            "name" : "Cabinet_base"
        },
        {
            "mesh" : 4,
            "name" : "Paybox_hl",
            "translation" : [
                -0.7934637069702148,
                1.488272786140442,
                -4.400766849517822
            ]
        }
    ],
    "materials" : [
        {
            "doubleSided" : true,
            "name" : "HL",
            "pbrMetallicRoughness" : {
                "baseColorFactor" : [
                    0,
                    0.800000011920929,
                    0.800000011920929,
                    1
                ],
                "metallicFactor" : 0,
                "roughnessFactor" : 0.5
            }
        },
        {
            "doubleSided" : true,
            "name" : "Material",
            "pbrMetallicRoughness" : {
                "baseColorFactor" : [
                    0,
                    0,
                    0,
                    1
                ],
                "metallicFactor" : 0,
                "roughnessFactor" : 0.4000000059604645
            }
        }
    ],
    "meshes" : [
        {
            "name" : "Cabinet_hl",
            "primitives" : [
                {
                    "attributes" : {
                        "POSITION" : 0,
                        "NORMAL" : 1,
                        "TEXCOORD_0" : 2
                    },
                    "indices" : 3,
                    "material" : 0
                }
            ]
        },
        {
            "name" : "Paybox_base",
            "primitives" : [
                {
                    "attributes" : {
                        "POSITION" : 4,
                        "NORMAL" : 5,
                        "TEXCOORD_0" : 6
                    },
                    "indices" : 7,
                    "material" : 1
                }
            ]
        },
        {
            "name" : "Controls",
            "primitives" : [
                {
                    "attributes" : {
                        "POSITION" : 8,
                        "NORMAL" : 9,
                        "TEXCOORD_0" : 10
                    },
                    "indices" : 11,
                    "material" : 0
                }
            ]
        },
        {
            "name" : "Cabinet_base",
            "primitives" : [
                {
                    "attributes" : {
                        "POSITION" : 12,
                        "NORMAL" : 13,
                        "TEXCOORD_0" : 14
                    },
                    "indices" : 15,
                    "material" : 1
                }
            ]
        },
        {
            "name" : "Paybox_hl",
            "primitives" : [
                {
                    "attributes" : {
                        "POSITION" : 16,
                        "NORMAL" : 17,
                        "TEXCOORD_0" : 18
                    },
                    "indices" : 19,
                    "material" : 0
                }
            ]
        }
    ],
    "accessors" : [
        {
            "bufferView" : 0,
            "componentType" : 5126,
            "count" : 264,
            "max" : [
                1.1205554008483887,
                5.042544841766357,
                1.0729422569274902
            ],
            "min" : [
                -1.1205554008483887,
                0,
                -1.0601236820220947
            ],
            "type" : "VEC3"
        },
        {
            "bufferView" : 1,
            "componentType" : 5126,
            "count" : 264,
            "type" : "VEC3"
        },
        {
            "bufferView" : 2,
            "componentType" : 5126,
            "count" : 264,
            "type" : "VEC2"
        },
        {
            "bufferView" : 3,
            "componentType" : 5123,
            "count" : 474,
            "type" : "SCALAR"
        },
        {
            "bufferView" : 4,
            "componentType" : 5126,
            "count" : 4,
            "max" : [
                1.4938299655914307,
                0.6179460287094116,
                5.501921653747559
            ],
            "min" : [
                1.2533056735992432,
                0.03356412053108215,
                5.501921653747559
            ],
            "type" : "VEC3"
        },
        {
            "bufferView" : 5,
            "componentType" : 5126,
            "count" : 4,
            "type" : "VEC3"
        },
        {
            "bufferView" : 6,
            "componentType" : 5126,
            "count" : 4,
            "type" : "VEC2"
        },
        {
            "bufferView" : 7,
            "componentType" : 5123,
            "count" : 6,
            "type" : "SCALAR"
        },
        {
            "bufferView" : 8,
            "componentType" : 5126,
            "count" : 1200,
            "max" : [
                1.2396756410598755,
                0.18501204252243042,
                0.3391883671283722
            ],
            "min" : [
                0.15539240837097168,
                -0.10388508439064026,
                0.13209447264671326
            ],
            "type" : "VEC3"
        },
        {
            "bufferView" : 9,
            "componentType" : 5126,
            "count" : 1200,
            "type" : "VEC3"
        },
        {
            "bufferView" : 10,
            "componentType" : 5126,
            "count" : 1200,
            "type" : "VEC2"
        },
        {
            "bufferView" : 11,
            "componentType" : 5123,
            "count" : 2196,
            "type" : "SCALAR"
        },
        {
            "bufferView" : 12,
            "componentType" : 5126,
            "count" : 162,
            "max" : [
                1.1205554008483887,
                4.9541707038879395,
                1.0583546161651611
            ],
            "min" : [
                -1.1205554008483887,
                0,
                -1.0601236820220947
            ],
            "type" : "VEC3"
        },
        {
            "bufferView" : 13,
            "componentType" : 5126,
            "count" : 162,
            "type" : "VEC3"
        },
        {
            "bufferView" : 14,
            "componentType" : 5126,
            "count" : 162,
            "type" : "VEC2"
        },
        {
            "bufferView" : 15,
            "componentType" : 5123,
            "count" : 318,
            "type" : "SCALAR"
        },
        {
            "bufferView" : 16,
            "componentType" : 5126,
            "count" : 24,
            "max" : [
                1.560741662979126,
                0.6867364048957825,
                5.501921653747559
            ],
            "min" : [
                1.1863939762115479,
                -0.035226255655288696,
                5.362600326538086
            ],
            "type" : "VEC3"
        },
        {
            "bufferView" : 17,
            "componentType" : 5126,
            "count" : 24,
            "type" : "VEC3"
        },
        {
            "bufferView" : 18,
            "componentType" : 5126,
            "count" : 24,
            "type" : "VEC2"
        },
        {
            "bufferView" : 19,
            "componentType" : 5123,
            "count" : 48,
            "type" : "SCALAR"
        }
    ],
    "bufferViews" : [
        {
            "buffer" : 0,
            "byteLength" : 3168,
            "byteOffset" : 0
        },
        {
            "buffer" : 0,
            "byteLength" : 3168,
            "byteOffset" : 3168
        },
        {
            "buffer" : 0,
            "byteLength" : 2112,
            "byteOffset" : 6336
        },
        {
            "buffer" : 0,
            "byteLength" : 948,
            "byteOffset" : 8448
        },
        {
            "buffer" : 0,
            "byteLength" : 48,
            "byteOffset" : 9396
        },
        {
            "buffer" : 0,
            "byteLength" : 48,
            "byteOffset" : 9444
        },
        {
            "buffer" : 0,
            "byteLength" : 32,
            "byteOffset" : 9492
        },
        {
            "buffer" : 0,
            "byteLength" : 12,
            "byteOffset" : 9524
        },
        {
            "buffer" : 0,
            "byteLength" : 14400,
            "byteOffset" : 9536
        },
        {
            "buffer" : 0,
            "byteLength" : 14400,
            "byteOffset" : 23936
        },
        {
            "buffer" : 0,
            "byteLength" : 9600,
            "byteOffset" : 38336
        },
        {
            "buffer" : 0,
            "byteLength" : 4392,
            "byteOffset" : 47936
        },
        {
            "buffer" : 0,
            "byteLength" : 1944,
            "byteOffset" : 52328
        },
        {
            "buffer" : 0,
            "byteLength" : 1944,
            "byteOffset" : 54272
        },
        {
            "buffer" : 0,
            "byteLength" : 1296,
            "byteOffset" : 56216
        },
        {
            "buffer" : 0,
            "byteLength" : 636,
            "byteOffset" : 57512
        },
        {
            "buffer" : 0,
            "byteLength" : 288,
            "byteOffset" : 58148
        },
        {
            "buffer" : 0,
            "byteLength" : 288,
            "byteOffset" : 58436
        },
        {
            "buffer" : 0,
            "byteLength" : 192,
            "byteOffset" : 58724
        },
        {
            "buffer" : 0,
            "byteLength" : 96,
            "byteOffset" : 58916
        }
    ],
    "buffers" : [
        {
            "byteLength" : 59012,
            "uri" : "cabinet.bin"
        }
    ]
}
